<?xml version="1.0" encoding="UTF-8"?>
<svg xmlns="http://www.w3.org/2000/svg" xmlns:xlink="http://www.w3.org/1999/xlink" viewBox="0 0 96 96" width="96px" height="96px">
<g id="surface10186141">
<path style=" stroke:none;fill-rule:nonzero;fill:rgb(0%,0%,0%);fill-opacity:1;" d="M 84.398438 1.199219 L 11.601562 1.199219 C 5.855469 1.199219 1.199219 5.855469 1.199219 11.601562 L 1.199219 84.398438 C 1.199219 90.144531 5.855469 94.800781 11.601562 94.800781 L 84.398438 94.800781 C 90.144531 94.800781 94.800781 90.144531 94.800781 84.398438 L 94.800781 11.601562 C 94.800781 5.855469 90.144531 1.199219 84.398438 1.199219 Z M 78.714844 67.15625 L 69.695312 67.28125 C 69.695312 67.28125 67.75 67.660156 65.203125 65.902344 C 61.828125 63.585938 58.644531 57.550781 56.164062 58.335938 C 53.648438 59.136719 53.726562 64.566406 53.726562 64.566406 C 53.726562 64.566406 53.746094 65.523438 53.167969 66.148438 C 52.542969 66.820312 51.324219 66.75 51.324219 66.75 L 47.28125 66.75 C 47.28125 66.75 38.371094 67.488281 30.511719 59.300781 C 21.953125 50.371094 14.390625 32.75 14.390625 32.75 C 14.390625 32.75 13.949219 31.636719 14.421875 31.070312 C 14.960938 30.441406 16.40625 30.425781 16.40625 30.425781 L 26.0625 30.378906 C 26.0625 30.378906 26.972656 30.539062 27.625 31.015625 C 28.160156 31.410156 28.46875 32.15625 28.46875 32.15625 C 28.46875 32.15625 30.027344 36.113281 32.097656 39.695312 C 36.132812 46.679688 38.011719 48.207031 39.378906 47.460938 C 41.375 46.367188 40.777344 37.589844 40.777344 37.589844 C 40.777344 37.589844 40.8125 34.402344 39.773438 32.980469 C 38.960938 31.875 37.4375 31.546875 36.769531 31.464844 C 36.222656 31.390625 37.109375 30.128906 38.269531 29.554688 C 40.007812 28.707031 43.082031 28.65625 46.707031 28.691406 C 49.527344 28.722656 50.34375 28.894531 51.449219 29.164062 C 54.78125 29.972656 53.648438 33.082031 53.648438 40.542969 C 53.648438 42.933594 53.214844 46.292969 54.9375 47.402344 C 55.679688 47.878906 57.488281 47.476562 62.007812 39.777344 C 64.15625 36.128906 65.761719 31.839844 65.761719 31.839844 C 65.761719 31.839844 66.117188 31.074219 66.664062 30.746094 C 67.222656 30.410156 67.976562 30.511719 67.976562 30.511719 L 78.144531 30.449219 C 78.144531 30.449219 81.195312 30.082031 81.695312 31.46875 C 82.214844 32.921875 80.558594 36.304688 76.402344 41.84375 C 69.585938 50.941406 68.824219 50.09375 74.488281 55.359375 C 79.898438 60.386719 81.015625 62.832031 81.203125 63.136719 C 83.4375 66.859375 78.714844 67.15625 78.714844 67.15625 Z M 78.714844 67.15625 "/>
</g>
</svg>
